<svg xmlns="http://www.w3.org/2000/svg" width="32" height="32" viewBox="0 0 32 32" fill="none">
  <rect width="32" height="32" rx="6" fill="#059669"/>
  <path d="M9 8C9 7.44772 9.44772 7 10 7H22C22.5523 7 23 7.44772 23 8V24C23 24.5523 22.5523 25 22 25H10C9.44772 25 9 24.5523 9 24V8Z" fill="white" fill-opacity="0.9"/>
  <rect x="12" y="11" width="8" height="1.5" rx="0.75" fill="#059669" fill-opacity="0.6"/>
  <rect x="12" y="15" width="6" height="1.5" rx="0.75" fill="#059669" fill-opacity="0.6"/>
  <rect x="12" y="19" width="7" height="1.5" rx="0.75" fill="#059669" fill-opacity="0.6"/>
  <circle cx="11.5" cy="11.75" r="0.75" fill="#059669"/>
  <circle cx="11.5" cy="15.75" r="0.75" fill="#059669"/>
  <circle cx="11.5" cy="19.75" r="0.75" fill="#059669"/>
  <path d="M11 23L13.5 21L16 23L18.5 21L21 23" stroke="#059669" stroke-width="1.2" stroke-linecap="round" stroke-linejoin="round"/>
</svg>